<svg width="20" height="20" viewBox="0 0 20 20" fill="none" xmlns="http://www.w3.org/2000/svg">
<g id="vuesax/outline/message-text">
<g id="message-text">
<path id="Vector" d="M13.3334 18.9583H2.50008C1.70008 18.9583 1.04175 18.3 1.04175 17.5V6.66663C1.04175 2.98329 2.98341 1.04163 6.66675 1.04163H13.3334C17.0167 1.04163 18.9584 2.98329 18.9584 6.66663V13.3333C18.9584 17.0166 17.0167 18.9583 13.3334 18.9583ZM6.66675 2.29163C3.68341 2.29163 2.29175 3.68329 2.29175 6.66663V17.5C2.29175 17.6166 2.38341 17.7083 2.50008 17.7083H13.3334C16.3167 17.7083 17.7084 16.3166 17.7084 13.3333V6.66663C17.7084 3.68329 16.3167 2.29163 13.3334 2.29163H6.66675Z" fill="white"/>
<path id="Vector_2" d="M14.1666 8.54163H5.83325C5.49159 8.54163 5.20825 8.25829 5.20825 7.91663C5.20825 7.57496 5.49159 7.29163 5.83325 7.29163H14.1666C14.5083 7.29163 14.7916 7.57496 14.7916 7.91663C14.7916 8.25829 14.5083 8.54163 14.1666 8.54163Z" fill="white"/>
<path id="Vector_3" d="M11.6666 12.7084H5.83325C5.49159 12.7084 5.20825 12.425 5.20825 12.0834C5.20825 11.7417 5.49159 11.4584 5.83325 11.4584H11.6666C12.0083 11.4584 12.2916 11.7417 12.2916 12.0834C12.2916 12.425 12.0083 12.7084 11.6666 12.7084Z" fill="white"/>
</g>
</g>
</svg>
