<svg width="16" height="16" viewBox="0 0 16 16" fill="none" xmlns="http://www.w3.org/2000/svg">
<g id="Social">
<path id="Vector" d="M4.96184 3.56665C5.38784 3.56665 5.78184 3.59998 6.14184 3.69865C6.5025 3.76465 6.79784 3.89665 7.05984 4.06132C7.3225 4.22665 7.51917 4.45732 7.64984 4.75398C7.78117 5.05065 7.84717 5.41398 7.84717 5.80932C7.84717 6.27132 7.7485 6.66665 7.51917 6.96332C7.3225 7.26065 6.9945 7.52398 6.60117 7.72198C7.1585 7.88732 7.5845 8.18398 7.84717 8.57998C8.10917 8.97532 8.27317 9.46998 8.27317 10.0306C8.27317 10.4926 8.1745 10.888 8.0105 11.218C7.84717 11.548 7.5845 11.8446 7.28917 12.0426C6.96835 12.2549 6.61372 12.4109 6.2405 12.504C5.84717 12.6033 5.45384 12.6693 5.0605 12.6693H0.666504V3.56665H4.96184ZM4.69917 7.25998C5.05984 7.25998 5.35517 7.16132 5.5845 6.99665C5.81384 6.83198 5.9125 6.53465 5.9125 6.17198C5.9125 5.97398 5.87917 5.77665 5.81384 5.64465C5.7485 5.51265 5.64984 5.41332 5.51917 5.31465C5.38784 5.24865 5.2565 5.18265 5.0925 5.14998C4.9285 5.11665 4.76517 5.11665 4.56784 5.11665H2.6665V7.26065H4.69984L4.69917 7.25998ZM4.79784 11.152C4.9945 11.152 5.19117 11.1186 5.35517 11.086C5.51917 11.0526 5.68317 10.9873 5.81384 10.888C5.94743 10.7915 6.05919 10.6679 6.14184 10.5253C6.20717 10.3606 6.27317 10.1627 6.27317 9.93198C6.27317 9.46998 6.14184 9.13998 5.87984 8.90932C5.61717 8.71132 5.2565 8.61265 4.8305 8.61265H2.6665V11.1526L4.79784 11.152ZM11.1258 11.1186C11.3878 11.3826 11.7812 11.5146 12.3058 11.5146C12.6665 11.5146 12.9945 11.416 13.2565 11.2513C13.5192 11.0533 13.6832 10.8553 13.7485 10.658H15.3552C15.0925 11.4487 14.6992 12.0093 14.1752 12.3726C13.6498 12.702 13.0272 12.9 12.2732 12.9C11.7907 12.9015 11.3124 12.8119 10.8632 12.636C10.459 12.4844 10.0985 12.2352 9.81384 11.9106C9.50937 11.607 9.28431 11.2331 9.1585 10.822C8.9945 10.3933 8.9285 9.93198 8.9285 9.40398C8.9285 8.90932 8.9945 8.44798 9.1585 8.01865C9.31646 7.60556 9.55 7.22552 9.84717 6.89798C10.1466 6.59055 10.5027 6.34401 10.8958 6.17198C11.3336 5.99603 11.8013 5.90638 12.2732 5.90798C12.8305 5.90798 13.3225 6.00732 13.7485 6.23798C14.1752 6.46865 14.5025 6.73265 14.7645 7.12865C15.0272 7.49132 15.2245 7.91998 15.3552 8.38198C15.4205 8.84332 15.4532 9.30532 15.4205 9.83265H10.6665C10.6665 10.3607 10.8632 10.8553 11.1258 11.1193V11.1186ZM13.1912 7.65598C12.9618 7.42532 12.6012 7.29332 12.1745 7.29332C11.8798 7.29332 11.6498 7.35998 11.4532 7.45865C11.2565 7.55732 11.1258 7.68932 10.9945 7.82132C10.8736 7.94876 10.7935 8.1094 10.7645 8.28265C10.7318 8.44798 10.6992 8.57998 10.6992 8.71132H13.6498C13.5845 8.21665 13.4205 7.88732 13.1912 7.65598ZM10.3058 4.19332H13.9778V5.08398H10.3065V4.19332H10.3058Z" fill="white"/>
</g>
</svg>
