<svg width="29" height="29" viewBox="0 0 29 29" fill="none" xmlns="http://www.w3.org/2000/svg">
<rect width="28.2934" height="28.2934" rx="14.1467" fill="white"/>
<path d="M11.8131 10.7405C12.1404 10.7405 12.4431 10.7661 12.7197 10.8419C12.9969 10.8926 13.2238 10.994 13.4251 11.1205C13.6269 11.2476 13.778 11.4248 13.8784 11.6528C13.9793 11.8807 14.03 12.1599 14.03 12.4636C14.03 12.8186 13.9542 13.1223 13.778 13.3503C13.6269 13.5787 13.3749 13.781 13.0727 13.9332C13.5009 14.0602 13.8282 14.2881 14.03 14.5924C14.2313 14.8962 14.3573 15.2762 14.3573 15.707C14.3573 16.062 14.2815 16.3657 14.1555 16.6193C14.03 16.8728 13.8282 17.1008 13.6013 17.2529C13.3548 17.416 13.0823 17.5358 12.7956 17.6074C12.4933 17.6837 12.1911 17.7344 11.8889 17.7344H8.51285V10.7405H11.8131ZM11.6113 13.5782C11.8884 13.5782 12.1153 13.5024 12.2915 13.3759C12.4677 13.2494 12.5435 13.0209 12.5435 12.7423C12.5435 12.5901 12.5179 12.4385 12.4677 12.3371C12.4175 12.2357 12.3417 12.1593 12.2413 12.0835C12.1404 12.0328 12.0395 11.9821 11.9135 11.957C11.7875 11.9314 11.662 11.9314 11.5104 11.9314H10.0495V13.5787H11.6118L11.6113 13.5782ZM11.6871 16.5686C11.8382 16.5686 11.9893 16.543 12.1153 16.5179C12.2413 16.4922 12.3673 16.4421 12.4677 16.3657C12.5704 16.2916 12.6562 16.1966 12.7197 16.0871C12.7699 15.9606 12.8207 15.8084 12.8207 15.6312C12.8207 15.2762 12.7197 15.0227 12.5184 14.8454C12.3166 14.6933 12.0395 14.6175 11.7122 14.6175H10.0495V16.5691L11.6871 16.5686ZM16.5491 16.543C16.7504 16.7458 17.0527 16.8472 17.4558 16.8472C17.7329 16.8472 17.9849 16.7714 18.1862 16.6449C18.388 16.4928 18.514 16.3406 18.5642 16.189H19.7987C19.5969 16.7965 19.2947 17.2273 18.8921 17.5065C18.4884 17.7595 18.01 17.9116 17.4307 17.9116C17.06 17.9128 16.6925 17.844 16.3473 17.7088C16.0367 17.5923 15.7598 17.4009 15.5411 17.1515C15.3071 16.9182 15.1342 16.6309 15.0376 16.315C14.9116 15.9857 14.8608 15.6312 14.8608 15.2255C14.8608 14.8454 14.9116 14.491 15.0376 14.1611C15.1589 13.8437 15.3384 13.5517 15.5667 13.3001C15.7967 13.0639 16.0704 12.8744 16.3724 12.7423C16.7088 12.6071 17.0682 12.5382 17.4307 12.5394C17.8589 12.5394 18.2369 12.6157 18.5642 12.793C18.8921 12.9702 19.1436 13.173 19.3449 13.4773C19.5467 13.7559 19.6983 14.0853 19.7987 14.4403C19.8489 14.7947 19.874 15.1497 19.8489 15.5549H16.1962C16.1962 15.9606 16.3473 16.3406 16.5491 16.5435V16.543ZM18.136 13.8825C17.9598 13.7052 17.6827 13.6038 17.3549 13.6038C17.1285 13.6038 16.9518 13.655 16.8006 13.7308C16.6495 13.8067 16.5491 13.9081 16.4482 14.0095C16.3553 14.1074 16.2938 14.2308 16.2715 14.364C16.2464 14.491 16.2213 14.5924 16.2213 14.6933H18.4884C18.4382 14.3132 18.3122 14.0602 18.136 13.8825ZM15.9191 11.222H18.7404V11.9063H15.9196V11.222H15.9191Z" fill="black"/>
</svg>
