<svg width="29" height="29" viewBox="0 0 29 29" fill="none" xmlns="http://www.w3.org/2000/svg">
<rect x="0.293396" width="28.2934" height="28.2934" rx="14.1467" fill="white"/>
<g clip-path="url(#clip0_32_1648)">
<path d="M12.3906 20.2934C13.5216 20.2934 14.4395 19.3755 14.4395 18.2445V16.1956H12.3906C11.2596 16.1956 10.3416 17.1135 10.3416 18.2445C10.3416 19.3755 11.2596 20.2934 12.3906 20.2934Z" fill="#0ACF83"/>
<path d="M10.3416 14.1466C10.3416 13.0156 11.2596 12.0977 12.3906 12.0977H14.4395V16.1954H12.3906C11.2596 16.1955 10.3416 15.2776 10.3416 14.1466Z" fill="#A259FF"/>
<path d="M10.3416 10.0489C10.3416 8.91792 11.2596 8 12.3906 8H14.4395V12.0978H12.3906C11.2596 12.0978 10.3416 11.1799 10.3416 10.0489Z" fill="#F24E1E"/>
<path d="M14.4399 8H16.4888C17.6198 8 18.5378 8.91792 18.5378 10.0489C18.5378 11.1799 17.6198 12.0978 16.4888 12.0978H14.4399V8Z" fill="#FF7262"/>
<path d="M18.5378 14.1466C18.5378 15.2776 17.6198 16.1955 16.4888 16.1955C15.3578 16.1955 14.4399 15.2776 14.4399 14.1466C14.4399 13.0156 15.3578 12.0977 16.4888 12.0977C17.6198 12.0977 18.5378 13.0156 18.5378 14.1466Z" fill="#1ABCFE"/>
</g>
<defs>
<clipPath id="clip0_32_1648">
<rect width="12.2934" height="12.2934" fill="white" transform="translate(8.2934 8)"/>
</clipPath>
</defs>
</svg>
