<svg width="19" height="18" viewBox="0 0 19 18" fill="none" xmlns="http://www.w3.org/2000/svg">
<g id="esl-icon/social/original/figma" clip-path="url(#clip0_185_20)">
<path id="path0 fill 1" d="M6.49907 17.9999C8.15508 17.9999 9.49912 16.6559 9.49912 14.9999V11.9999H6.49907C4.84306 11.9999 3.49902 13.3439 3.49902 14.9999C3.49902 16.6559 4.84306 17.9999 6.49907 17.9999Z" fill="#0ACF83"/>
<path id="path1 fill 3" d="M3.49902 8.9999C3.49902 7.3439 4.84306 5.99988 6.49907 5.99988H9.49912V11.9999H6.49907C4.84306 11.9999 3.49902 10.6559 3.49902 8.9999Z" fill="#A259FF"/>
<path id="path1 fill 2" d="M3.49902 2.9999C3.49902 1.3439 4.84306 -0.00012207 6.49907 -0.00012207H9.49912V5.99985H6.49907C4.84306 5.99985 3.49902 4.6559 3.49902 2.9999Z" fill="#F24E1E"/>
<path id="path2 fill 1" d="M9.49951 -0.00012207H12.4996C14.1556 -0.00012207 15.4996 1.3439 15.4996 2.9999C15.4996 4.6559 14.1556 5.99985 12.4996 5.99985H9.49951V-0.00012207Z" fill="#FF7262"/>
<path id="path3 fill 1" d="M15.4996 8.9999C15.4996 10.6559 14.1556 11.9999 12.4996 11.9999C10.8435 11.9999 9.49951 10.6559 9.49951 8.9999C9.49951 7.3439 10.8435 5.99988 12.4996 5.99988C14.1556 5.99988 15.4996 7.3439 15.4996 8.9999Z" fill="#1ABCFE"/>
</g>
<defs>
<clipPath id="clip0_185_20">
<rect width="18" height="18" fill="white" transform="translate(0.5)"/>
</clipPath>
</defs>
</svg>
