<svg width="69" height="33" viewBox="0 0 69 33" fill="none" xmlns="http://www.w3.org/2000/svg">
<g id="Frame 7">
<g id="Group 1">
<path id="Vector 1" d="M30.36 8.47717L14.9829 24.0515C17.1941 24.6657 19.5658 24.1117 21.2761 22.5814L22.2771 21.6857L38.0031 7.32726C39.6082 5.8617 41.3225 4.5203 43.131 3.31463L43.6101 2.99521C45.0165 2.0576 46.5811 1.38242 48.2281 1.00234L48.3521 0.973732C53.0868 -0.118906 58.047 1.36349 61.4058 4.87496L61.7998 5.28679C66.1911 9.87779 67.5209 16.5992 65.2084 22.5164C63.3718 27.2159 59.4657 30.8023 54.6269 32.2319L53.6229 32.5286C46.986 33.7138 40.3121 30.6466 36.8893 24.8382L36.0771 23.46L42.5829 17.3486L42.6102 17.5674C43.3727 23.6671 50.5355 26.5604 55.3205 22.7014C56.1514 22.0314 56.8369 21.1988 57.3349 20.2546L57.4638 20.0103C60.671 13.9299 54.9931 6.98253 48.396 8.91504C47.1681 9.27472 46.0479 9.93168 45.1346 10.8277L26.3273 29.2802C25.8638 29.735 25.3386 30.1223 24.7672 30.4309L24.4326 30.6116C19.0892 33.497 12.5997 33.2496 7.49143 29.9657C2.81089 26.2706 0.285591 20.4816 0.76114 14.5372L0.788571 14.1943L0.883944 13.7356C3.84485 -0.504915 22.6575 -3.86104 30.36 8.47717Z" fill="white"/>
<path id="Vector 2" d="M8.68619 19.33L19.9636 8.29255C13.1995 6.21129 6.8241 12.5023 8.68619 19.33Z" fill="#161616"/>
</g>
</g>
</svg>
