<svg width="17" height="17" viewBox="0 0 17 17" fill="none" xmlns="http://www.w3.org/2000/svg">
<g id="envelope">
<path id="Vector" d="M14.8815 4.95662V12.0441C14.8815 12.8829 14.2015 13.5629 13.3627 13.5629H3.23774C2.39896 13.5629 1.71899 12.8829 1.71899 12.0441V4.95662M14.8815 4.95662C14.8815 4.11783 14.2015 3.43787 13.3627 3.43787H3.23774C2.39896 3.43787 1.71899 4.11783 1.71899 4.95662M14.8815 4.95662V5.12045C14.8815 5.64785 14.6079 6.13749 14.1587 6.4139L9.09622 9.52929C8.60808 9.82968 7.99241 9.82968 7.50427 9.52929L2.44177 6.4139C1.9926 6.13749 1.71899 5.64785 1.71899 5.12045V4.95662" stroke="#085CA8" stroke-width="0.8" stroke-linecap="round" stroke-linejoin="round"/>
</g>
</svg>
