<svg width="57" height="57" viewBox="0 0 57 57" fill="none" xmlns="http://www.w3.org/2000/svg">
<g id="person-with-laptop-male">
<path id="Vector" d="M41.3747 26.7045C40.8475 29.0225 40.3748 29.6875 38.8762 29.6875C36.9085 29.6875 35.4574 28.3231 35.4574 26.6962C35.4574 25.0693 37.0522 23.75 39.0199 23.75C41.3462 23.75 41.9126 24.3402 41.3747 26.7045ZM15.625 26.7045C16.1522 29.0225 16.6248 29.6875 18.1235 29.6875C20.0911 29.6875 21.5423 28.3231 21.5423 26.6962C21.5423 25.0693 19.9475 23.75 17.9798 23.75C15.6535 23.75 15.087 24.3402 15.625 26.7045Z" fill="#FB8C00"/>
<path id="Vector_2" d="M43.9577 44.0812C42.2928 41.8095 33.25 38 33.25 38H28.5H23.75C23.75 38 14.7072 41.8095 13.0423 44.0812C11.0307 46.8267 10.6875 51.0625 10.6875 51.0625H46.3125C46.3125 51.0625 45.9693 46.8267 43.9577 44.0812Z" fill="#085CA8"/>
<path id="Vector_3" d="M23.75 27.3125V38C23.75 41.5138 28.5 43.9375 28.5 43.9375C28.5 43.9375 33.25 41.5494 33.25 38V27.3125H23.75Z" fill="#FB8C00"/>
<path id="Vector_4" d="M16.625 21.0734C16.625 32.9401 23.0149 38 28.5 38V10.6875C21.6267 10.6875 16.625 16.6428 16.625 21.0734ZM40.375 21.0734C40.375 32.9401 33.9851 38 28.5 38V10.6875C35.3733 10.6875 40.375 16.6428 40.375 21.0734Z" fill="#FFB74D"/>
<path id="Vector_5" d="M28.5 5.9375C21.9414 5.9375 15.4375 10.0664 15.4375 16.625C15.4375 21.6458 17.3007 27.3125 17.3007 27.3125C17.3007 27.3125 17.8125 23.503 17.8125 20.1875C28.6983 20.1875 34.4375 14.25 34.4375 14.25C34.4375 14.25 35.3281 18.8017 39.1875 20.1875C39.4262 25.308 39.691 27.3125 39.691 27.3125C39.691 27.3125 41.5625 20.8549 41.5625 16.625C41.5625 11.8382 39.2243 8.3125 34.4375 8.3125C34.4375 8.3125 32.5304 5.9375 28.5 5.9375Z" fill="white"/>
<path id="Vector_6" d="M35.625 26.125C35.625 26.125 34.5622 27.3125 33.25 27.3125C31.9378 27.3125 30.875 26.125 30.875 26.125C30.875 26.125 31.9378 24.9375 33.25 24.9375C34.5622 24.9375 35.625 26.125 35.625 26.125ZM26.125 26.125C26.125 26.125 25.0622 27.3125 23.75 27.3125C22.4378 27.3125 21.375 26.125 21.375 26.125C21.375 26.125 22.4378 24.9375 23.75 24.9375C25.0622 24.9375 26.125 26.125 26.125 26.125Z" fill="white"/>
<path id="Vector_7" d="M26.7388 30.5271C26.7388 30.5271 27.519 30.8632 28.4998 30.8632C29.4807 30.8632 30.2609 30.5271 30.2609 30.5271C30.2609 30.5271 29.755 31.7942 28.4998 31.7942C27.2446 31.7942 26.7388 30.5271 26.7388 30.5271Z" fill="#FCA230"/>
<path id="Vector_8" d="M36.2188 23.0339C36.2188 23.0339 34.9042 22.5625 33.25 22.5625C31.5958 22.5625 30.875 22.553 30.875 21.9664C30.875 21.3809 31.7181 21.375 33.25 21.375C35.3661 21.375 36.2188 23.0339 36.2188 23.0339ZM20.7812 23.0339C20.7812 23.0339 22.0958 22.5625 23.75 22.5625C25.4042 22.5625 26.125 22.553 26.125 21.9664C26.125 21.3809 25.2819 21.375 23.75 21.375C21.6339 21.375 20.7812 23.0339 20.7812 23.0339Z" fill="#6D4C41"/>
<path id="Vector_9" d="M37.8122 32.0625H19.1875C21.553 36.138 25.1867 38 28.4999 38C31.813 38 35.4456 36.138 37.8122 32.0625Z" fill="#FFCC80"/>
<path id="Vector_10" d="M41.6466 49.9664L42.6512 36.9039C42.7047 36.214 42.1596 35.625 41.4673 35.625H15.5323C14.84 35.625 14.2949 36.214 14.3483 36.9039L15.353 49.9664C15.4005 50.5851 15.9158 51.0625 16.5369 51.0625H40.4627C41.0837 51.0625 41.5991 50.5851 41.6466 49.9664Z" fill="#B0BEC5"/>
<path id="Vector_11" d="M28.5 47.5C29.8117 47.5 30.875 46.4367 30.875 45.125C30.875 43.8133 29.8117 42.75 28.5 42.75C27.1883 42.75 26.125 43.8133 26.125 45.125C26.125 46.4367 27.1883 47.5 28.5 47.5Z" fill="#ECEFF1"/>
<path id="Vector_12" d="M25.5312 32.7786C25.5312 32.7786 26.8458 33.25 28.5 33.25C30.1542 33.25 31.4688 32.7786 31.4688 32.7786C31.4688 32.7786 30.2634 34.4375 28.5 34.4375C26.7366 34.4375 25.5312 32.7786 25.5312 32.7786Z" fill="#FB8C00"/>
<path id="Vector_13" d="M23.7501 27.3125C24.1622 27.3125 24.5434 27.1902 24.8806 27.0299C24.7512 26.5145 24.3059 26.125 23.7501 26.125C23.1944 26.125 22.7491 26.5145 22.6196 27.0299C22.9569 27.1902 23.3381 27.3125 23.7501 27.3125ZM33.2501 27.3125C33.6622 27.3125 34.0434 27.1902 34.3806 27.0299C34.2512 26.5145 33.8059 26.125 33.2501 26.125C32.6944 26.125 32.2491 26.5145 32.1196 27.0299C32.4569 27.1902 32.8381 27.3125 33.2501 27.3125Z" fill="#3E2723"/>
</g>
</svg>
