<svg width="48" height="49" viewBox="0 0 48 49" fill="none" xmlns="http://www.w3.org/2000/svg">
<g id="goal">
<g id="49 Goal, Accomplishment, Achievement, Clipboard, Success, Target">
<path id="Vector" d="M31.5 38.0001H34.5V43.2501C34.5 43.8468 34.2629 44.4191 33.841 44.841C33.419 45.263 32.8467 45.5001 32.25 45.5001H8.25C7.65326 45.5001 7.08097 45.263 6.65901 44.841C6.23705 44.4191 6 43.8468 6 43.2501V10.2501C6 9.65332 6.23705 9.08102 6.65901 8.65906C7.08097 8.23711 7.65326 8.00005 8.25 8.00005H12V11.0001H9.75C9.55109 11.0001 9.36032 11.0791 9.21967 11.2197C9.07902 11.3604 9 11.5511 9 11.7501V41.7501C9 41.949 9.07902 42.1397 9.21967 42.2804C9.36032 42.421 9.55109 42.5001 9.75 42.5001H30.75C30.9489 42.5001 31.1397 42.421 31.2803 42.2804C31.421 42.1397 31.5 41.949 31.5 41.7501V38.0001ZM31.5 11.7501V15.5001H34.5V10.2501C34.5 9.65332 34.2629 9.08102 33.841 8.65906C33.419 8.23711 32.8467 8.00005 32.25 8.00005H28.5V11.0001H30.75C30.9489 11.0001 31.1397 11.0791 31.2803 11.2197C31.421 11.3604 31.5 11.5511 31.5 11.7501ZM20.25 11.0001C20.3983 11.0001 20.5433 10.9561 20.6667 10.8737C20.79 10.7912 20.8861 10.6741 20.9429 10.5371C20.9997 10.4 21.0145 10.2492 20.9856 10.1037C20.9566 9.95825 20.8852 9.82461 20.7803 9.71972C20.6754 9.61483 20.5418 9.5434 20.3963 9.51446C20.2508 9.48553 20.1 9.50038 19.963 9.55714C19.8259 9.61391 19.7088 9.71004 19.6264 9.83338C19.544 9.95671 19.5 10.1017 19.5 10.2501C19.5 10.449 19.579 10.6397 19.7197 10.7804C19.8603 10.921 20.0511 11.0001 20.25 11.0001ZM12.75 14.0001V7.25005C12.75 6.85223 12.908 6.4707 13.1893 6.18939C13.4706 5.90809 13.8522 5.75005 14.25 5.75005H17.3475C17.5153 5.10806 17.8912 4.53981 18.4164 4.13424C18.9416 3.72867 19.5864 3.50867 20.25 3.50867C20.9136 3.50867 21.5584 3.72867 22.0836 4.13424C22.6088 4.53981 22.9847 5.10806 23.1525 5.75005H26.25C26.6478 5.75005 27.0294 5.90809 27.3107 6.18939C27.592 6.4707 27.75 6.85223 27.75 7.25005V14.0001C27.75 14.3979 27.592 14.7794 27.3107 15.0607C27.0294 15.342 26.6478 15.5001 26.25 15.5001H14.25C13.8522 15.5001 13.4706 15.342 13.1893 15.0607C12.908 14.7794 12.75 14.3979 12.75 14.0001ZM18 10.2501C18 10.6951 18.132 11.1301 18.3792 11.5001C18.6264 11.8701 18.9778 12.1585 19.389 12.3288C19.8001 12.4991 20.2525 12.5436 20.689 12.4568C21.1254 12.37 21.5263 12.1557 21.841 11.841C22.1557 11.5264 22.37 11.1255 22.4568 10.689C22.5436 10.2525 22.499 9.80015 22.3287 9.38902C22.1584 8.97788 21.87 8.62648 21.5 8.37925C21.13 8.13201 20.695 8.00005 20.25 8.00005C19.6533 8.00005 19.081 8.23711 18.659 8.65906C18.2371 9.08102 18 9.65332 18 10.2501Z" fill="white"/>
<path id="Vector_2" d="M12 22.25C12 22.4489 12.079 22.6397 12.2197 22.7803C12.3603 22.921 12.5511 23 12.75 23H20.25C20.4489 23 20.6397 22.921 20.7803 22.7803C20.921 22.6397 21 22.4489 21 22.25V17.75C21 17.5511 20.921 17.3603 20.7803 17.2197C20.6397 17.079 20.4489 17 20.25 17H12.75C12.5511 17 12.3603 17.079 12.2197 17.2197C12.079 17.3603 12 17.5511 12 17.75V22.25ZM12 35.75C12 35.9489 12.079 36.1397 12.2197 36.2803C12.3603 36.421 12.5511 36.5 12.75 36.5H20.25C20.4489 36.5 20.6397 36.421 20.7803 36.2803C20.921 36.1397 21 35.9489 21 35.75V31.25C21 31.0511 20.921 30.8603 20.7803 30.7197C20.6397 30.579 20.4489 30.5 20.25 30.5H12.75C12.5511 30.5 12.3603 30.579 12.2197 30.7197C12.079 30.8603 12 31.0511 12 31.25V35.75ZM21 24.5H12V26H21V24.5ZM12 29H21V27.5H12V29ZM35.25 26.75C35.25 27.195 35.118 27.63 34.8708 28C34.6236 28.37 34.2722 28.6584 33.861 28.8287C33.4499 28.999 32.9975 29.0436 32.561 28.9568C32.1246 28.87 31.7237 28.6557 31.409 28.341C31.0943 28.0263 30.88 27.6254 30.7932 27.189C30.7064 26.7525 30.751 26.3001 30.9213 25.889C31.0916 25.4778 31.38 25.1264 31.75 24.8792C32.12 24.632 32.555 24.5 33 24.5C33.5967 24.5 34.169 24.7371 34.591 25.159C35.0129 25.581 35.25 26.1533 35.25 26.75ZM35.25 26.75C35.25 27.195 35.118 27.63 34.8708 28C34.6236 28.37 34.2722 28.6584 33.861 28.8287C33.4499 28.999 32.9975 29.0436 32.561 28.9568C32.1246 28.87 31.7237 28.6557 31.409 28.341C31.0943 28.0263 30.88 27.6254 30.7932 27.189C30.7064 26.7525 30.751 26.3001 30.9213 25.889C31.0916 25.4778 31.38 25.1264 31.75 24.8792C32.12 24.632 32.555 24.5 33 24.5C33.5967 24.5 34.169 24.7371 34.591 25.159C35.0129 25.581 35.25 26.1533 35.25 26.75ZM41.1075 25.25C40.8033 23.6097 40.009 22.1002 38.8294 20.9206C37.6498 19.741 36.1403 18.9467 34.5 18.6425V16.25H31.5V18.6425C29.8597 18.9467 28.3502 19.741 27.1706 20.9206C25.991 22.1002 25.1967 23.6097 24.8925 25.25H22.5V28.25H24.8925C25.1967 29.8903 25.991 31.3998 27.1706 32.5794C28.3502 33.759 29.8597 34.5533 31.5 34.8575V37.25H34.5V34.8575C36.1403 34.5533 37.6498 33.759 38.8294 32.5794C40.009 31.3998 40.8033 29.8903 41.1075 28.25H43.5V25.25H41.1075ZM33 32C31.9616 32 30.9466 31.6921 30.0833 31.1152C29.2199 30.5383 28.547 29.7184 28.1496 28.7591C27.7523 27.7998 27.6483 26.7442 27.8509 25.7258C28.0534 24.7074 28.5535 23.7719 29.2877 23.0377C30.0219 22.3035 30.9574 21.8034 31.9758 21.6009C32.9942 21.3983 34.0498 21.5023 35.0091 21.8996C35.9684 22.297 36.7883 22.9699 37.3652 23.8333C37.9421 24.6966 38.25 25.7116 38.25 26.75C38.25 28.1424 37.6969 29.4777 36.7123 30.4623C35.7277 31.4469 34.3924 32 33 32ZM35.25 26.75C35.25 27.195 35.118 27.63 34.8708 28C34.6236 28.37 34.2722 28.6584 33.861 28.8287C33.4499 28.999 32.9975 29.0436 32.561 28.9568C32.1246 28.87 31.7237 28.6557 31.409 28.341C31.0943 28.0263 30.88 27.6254 30.7932 27.189C30.7064 26.7525 30.751 26.3001 30.9213 25.889C31.0916 25.4778 31.38 25.1264 31.75 24.8792C32.12 24.632 32.555 24.5 33 24.5C33.5967 24.5 34.169 24.7371 34.591 25.159C35.0129 25.581 35.25 26.1533 35.25 26.75ZM12 39.5H22.5V38H12V39.5ZM27 38V39.5H28.5V38H27ZM24 38V39.5H25.5V38H24Z" fill="#085CA8"/>
</g>
</g>
</svg>
