<svg width="55" height="55" viewBox="0 0 55 55" fill="none" xmlns="http://www.w3.org/2000/svg">
<g id="artist" clip-path="url(#clip0_32_1507)">
<path id="Vector" fill-rule="evenodd" clip-rule="evenodd" d="M11.6255 50.4573H41.8763V36.4864C41.8763 32.9536 38.9854 30.0635 35.4534 30.0635H18.0493C14.5164 30.0635 11.6255 32.9536 11.6255 36.4864V50.4573Z" fill="white"/>
<path id="Vector_2" fill-rule="evenodd" clip-rule="evenodd" d="M22.4761 23.3716H31.1016V30.0635C31.0982 31.2062 30.6428 32.3011 29.8348 33.1091C29.0268 33.9171 27.9319 34.3725 26.7893 34.3759C24.4174 34.3759 22.4761 32.4354 22.4761 30.0635V23.3716Z" fill="white"/>
<path id="Vector_3" fill-rule="evenodd" clip-rule="evenodd" d="M26.7504 8.2594C32.2891 8.2594 36.7776 12.7488 36.7776 18.2857C36.7776 23.8244 32.2891 28.3129 26.7504 28.3129C21.2126 28.3129 16.7241 23.8244 16.7241 18.2857C16.7241 12.7488 21.2126 8.2594 26.7504 8.2594Z" fill="white"/>
<path id="Vector_4" fill-rule="evenodd" clip-rule="evenodd" d="M37.1627 18.0288C37.1627 18.0288 23.4204 19.9684 18.0424 13.799C17.153 13.1794 18.8425 10.9416 17.55 8.43391C16.6571 6.70141 17.831 3.40914 29.0098 4.84946C40.1877 6.29149 43.889 19.1529 42.9437 19.5654C41.9984 19.977 38.6382 19.2208 37.1627 18.0288Z" fill="white"/>
<path id="Vector_5" fill-rule="evenodd" clip-rule="evenodd" d="M12.3965 51.0993H42.6473V37.1293C42.6473 33.5955 39.7564 30.7054 36.2244 30.7054H18.8195C15.2874 30.7054 12.3965 33.5955 12.3965 37.1293V51.0993Z" fill="white"/>
<path id="Vector_6" fill-rule="evenodd" clip-rule="evenodd" d="M23.248 24.0144H31.8727V30.7055C31.8727 33.0782 29.9323 35.0187 27.5604 35.0187C25.1885 35.0187 23.248 33.0782 23.248 30.7055V24.0144Z" fill="#FFCC80"/>
<path id="Vector_7" fill-rule="evenodd" clip-rule="evenodd" d="M27.5214 8.90137C33.0593 8.90137 37.5486 13.3907 37.5486 18.9286C37.5486 24.4664 33.0593 28.9549 27.5214 28.9549C21.9836 28.9549 17.4951 24.4664 17.4951 18.9286C17.4951 13.3907 21.9836 8.90137 27.5214 8.90137Z" fill="#FFCC80"/>
<path id="Vector_8" fill-rule="evenodd" clip-rule="evenodd" d="M37.9337 18.6717C37.9337 18.6717 24.1914 20.6113 18.8134 14.441C17.924 13.8213 19.6135 11.5835 18.321 9.07673C17.4281 7.34337 18.602 4.05111 29.7808 5.49228C40.9595 6.93345 44.66 19.7957 43.7147 20.2074C42.7694 20.6199 39.4101 19.8627 37.9337 18.6717Z" fill="#085CA8"/>
<path id="Vector_9" d="M37.0286 18.5307C35.3185 18.7413 22.9185 20.0381 17.7245 14.1617C17.1392 13.7191 17.2561 13.0316 17.4117 12.1189L17.8852 12.198L17.4108 12.1181L17.416 12.0914C17.5749 11.159 17.7769 9.92324 17.1229 8.6548C16.8854 8.20199 16.7907 7.68782 16.8513 7.18011C16.9038 6.77535 17.0619 6.36543 17.361 5.98043C17.6454 5.61261 18.057 5.268 18.626 4.97582C20.3043 4.11042 23.4763 3.65324 29.0699 4.37425C34.4127 5.06261 38.0934 8.27066 40.4077 11.5578C41.6108 13.2688 42.4461 15.0056 42.9523 16.4175C43.4791 17.8879 43.6492 19.061 43.5152 19.5362C43.4507 19.7639 43.3235 19.9238 43.1353 20.0063C42.5441 20.2632 41.2645 20.1661 39.9711 19.8232C38.9012 19.5379 37.7883 19.0859 37.0286 18.5307ZM18.4051 13.4828C23.4617 19.2844 36.2921 17.661 37.0613 17.5579C37.1316 17.5427 37.2045 17.5434 37.2746 17.56C37.3446 17.5767 37.4101 17.6089 37.466 17.6542L37.4652 17.655C38.114 18.1793 39.1788 18.6175 40.216 18.8925C41.2077 19.1564 42.1393 19.2732 42.6077 19.1701C42.6429 18.78 42.4642 17.9 42.0491 16.7415C41.5687 15.4018 40.7729 13.7483 39.6205 12.1112C37.4334 9.00457 33.9649 5.97269 28.9496 5.32644C23.5794 4.63378 20.5991 5.04027 19.066 5.83003C18.6294 6.05519 18.3235 6.30613 18.1215 6.56738C17.9514 6.77855 17.8418 7.03189 17.8044 7.30042C17.7623 7.62355 17.837 7.94238 17.9771 8.21394C18.7781 9.76769 18.546 11.1848 18.3638 12.2521L18.3604 12.2788H18.3587C18.2607 12.8589 18.1868 13.2946 18.3106 13.3985C18.3449 13.4218 18.3776 13.4493 18.406 13.4819L18.4051 13.4828Z" fill="#130506"/>
<path id="Vector_10" d="M36.9069 18.4354C37.0144 18.4946 37.1405 18.5106 37.2594 18.4799C37.3783 18.4493 37.4809 18.3743 37.5464 18.2704C37.6118 18.1666 37.6351 18.0416 37.6114 17.9211C37.5878 17.8007 37.5189 17.6938 37.4191 17.6224L37.2429 17.5064C35.9409 16.641 29.2773 12.2118 22.7521 12.1267C22.6891 12.126 22.6265 12.1376 22.568 12.1611C22.5095 12.1845 22.4562 12.2193 22.4111 12.2633C22.366 12.3074 22.33 12.3599 22.3052 12.4178C22.2804 12.4758 22.2673 12.538 22.2666 12.6011C22.2658 12.6641 22.2775 12.7267 22.3009 12.7852C22.3244 12.8437 22.3591 12.897 22.4032 12.9421C22.4472 12.9872 22.4997 13.0231 22.5577 13.0479C22.6156 13.0727 22.6779 13.0859 22.7409 13.0866C28.9783 13.1674 35.4476 17.4677 36.7126 18.3082C36.7943 18.3623 36.8527 18.401 36.9069 18.4354ZM28.7282 4.37169C28.6677 4.39003 28.6114 4.4201 28.5625 4.4602C28.5137 4.50029 28.4732 4.54961 28.4434 4.60535C28.4136 4.66109 28.395 4.72216 28.3888 4.78506C28.3826 4.84796 28.3889 4.91147 28.4072 4.97196C28.4256 5.03245 28.4556 5.08874 28.4957 5.13761C28.5358 5.18648 28.5851 5.22697 28.6409 5.25677C28.6966 5.28658 28.7577 5.30511 28.8206 5.31132C28.8835 5.31753 28.947 5.31128 29.0075 5.29294C29.0118 5.29208 30.8397 4.73263 32.1408 4.88989C32.2041 4.89861 32.2686 4.89461 32.3304 4.87813C32.3922 4.86165 32.45 4.83302 32.5006 4.79392C32.5512 4.75481 32.5935 4.70601 32.6251 4.65037C32.6566 4.59473 32.6767 4.53337 32.6843 4.46986C32.6918 4.40636 32.6866 4.34199 32.669 4.28051C32.6514 4.21904 32.6217 4.1617 32.5816 4.11183C32.5416 4.06196 32.492 4.02058 32.4358 3.99009C32.3796 3.95961 32.3178 3.94063 32.2542 3.93427C30.7503 3.75294 28.7342 4.36911 28.7282 4.37169ZM26.3726 22.8886C26.4149 22.8417 26.4659 22.8035 26.5229 22.7763C26.5798 22.7491 26.6416 22.7333 26.7046 22.73C26.7677 22.7266 26.8308 22.7357 26.8903 22.7568C26.9498 22.7778 27.0046 22.8103 27.0516 22.8525C27.0985 22.8948 27.1367 22.9458 27.1639 23.0028C27.1911 23.0597 27.2069 23.1215 27.2102 23.1845C27.2136 23.2476 27.2045 23.3107 27.1834 23.3702C27.1624 23.4297 27.1299 23.4845 27.0876 23.5315C27.0808 23.5392 24.794 26.1491 22.2648 23.5443C22.2209 23.4991 22.1863 23.4457 22.1629 23.3872C22.1396 23.3286 22.1281 23.266 22.129 23.2029C22.1298 23.1399 22.1431 23.0776 22.1681 23.0197C22.193 22.9618 22.2291 22.9094 22.2743 22.8654C22.3195 22.8215 22.3729 22.7869 22.4315 22.7635C22.4901 22.7402 22.5527 22.7287 22.6157 22.7296C22.6787 22.7304 22.741 22.7437 22.7989 22.7687C22.8568 22.7936 22.9092 22.8297 22.9532 22.8749C24.757 24.732 26.3675 22.8929 26.3726 22.8886Z" fill="#130506"/>
<path id="Vector_11" d="M30.4938 22.8886C30.5361 22.8416 30.5871 22.8035 30.6441 22.7762C30.701 22.749 30.7628 22.7333 30.8258 22.7299C30.8889 22.7266 30.952 22.7357 31.0115 22.7567C31.071 22.7777 31.1258 22.8103 31.1728 22.8525C31.2197 22.8947 31.2579 22.9457 31.2851 23.0027C31.3123 23.0597 31.3281 23.1214 31.3314 23.1845C31.3348 23.2475 31.3257 23.3106 31.3046 23.3701C31.2836 23.4296 31.2511 23.4844 31.2088 23.5314C31.202 23.5391 28.9152 26.149 26.3852 23.5443C26.2964 23.453 26.2475 23.3302 26.2493 23.2029C26.2511 23.0756 26.3033 22.9542 26.3946 22.8654C26.4859 22.7766 26.6087 22.7277 26.736 22.7295C26.8634 22.7313 26.9848 22.7835 27.0735 22.8748C28.8774 24.7319 30.4887 22.8929 30.4938 22.8886ZM31.2999 22.9324C31.3635 22.9616 31.4203 23.0046 31.4658 23.057C31.4118 23.0138 31.3565 22.9723 31.2999 22.9324ZM31.5835 26.8262V30.0635C31.5835 31.3818 31.0438 32.5815 30.1759 33.4494C29.7318 33.8955 29.2041 34.2496 28.6229 34.4913C28.0417 34.733 27.4185 34.8576 26.7891 34.858C26.1596 34.8577 25.5364 34.7331 24.9552 34.4914C24.374 34.2497 23.8463 33.8956 23.4023 33.4494C22.9562 33.0056 22.6023 32.4779 22.3607 31.8969C22.1192 31.3158 21.9947 30.6928 21.9946 30.0635V26.8288C22.2679 27.06 22.5928 27.2705 22.9588 27.4544V30.0635C22.959 30.5662 23.0584 31.0639 23.2515 31.528C23.4445 31.9921 23.7274 32.4135 24.0838 32.768C24.4384 33.1244 24.8599 33.4074 25.3242 33.6006C25.7884 33.7937 26.2862 33.8934 26.7891 33.8937C27.8418 33.8937 28.8 33.4623 29.4944 32.768C29.8508 32.4135 30.1337 31.9921 30.3267 31.528C30.5198 31.0639 30.6192 30.5662 30.6193 30.0635V27.4536C30.9638 27.2822 31.2873 27.0717 31.5835 26.8262ZM22.1184 23.0493C22.1605 23.0021 22.2116 22.9638 22.2688 22.9367C22.218 22.9733 22.1678 23.0109 22.1184 23.0493Z" fill="#130506"/>
<path id="Vector_12" d="M12.1078 49.9753H41.3944V36.4865C41.3944 34.8537 40.7258 33.3679 39.649 32.2911C39.0992 31.738 38.4455 31.299 37.7255 30.9993C37.0055 30.6996 36.2334 30.5452 35.4536 30.5448H30.9642V29.5815H35.4536C36.36 29.5818 37.2574 29.7611 38.0943 30.1091C38.9312 30.4572 39.6912 30.9671 40.3305 31.6096C40.9728 32.249 41.4826 33.009 41.8305 33.8459C42.1784 34.6828 42.3576 35.5802 42.3578 36.4865V50.4574C42.3578 50.585 42.3071 50.7074 42.2168 50.7977C42.1266 50.8879 42.0042 50.9386 41.8765 50.9386H11.6257C11.4979 50.9386 11.3755 50.888 11.2851 50.7977C11.1947 50.7075 11.1438 50.5851 11.1436 50.4574V36.4865C11.1439 35.5801 11.3232 34.6827 11.6712 33.8458C12.0193 33.0089 12.5292 32.2489 13.1717 31.6096C13.8113 30.9673 14.5715 30.4575 15.4085 30.1094C16.2455 29.7614 17.143 29.582 18.0495 29.5815H22.9591V30.5448H18.0495C17.2695 30.5451 16.4972 30.6996 15.7771 30.9993C15.057 31.2989 14.4031 31.7379 13.8532 32.2911C13.3003 32.841 12.8614 33.4947 12.5619 34.2147C12.2624 34.9347 12.1081 35.7067 12.1078 36.4865V49.9753ZM37.2591 18.2326V18.2858C37.261 19.6661 36.9901 21.0332 36.462 22.3085C35.9338 23.5837 35.1589 24.742 34.1817 25.7169C33.2069 26.6942 32.0487 27.4693 30.7734 27.9976C29.4981 28.5259 28.131 28.7969 26.7507 28.7951C25.3705 28.7968 24.0035 28.5257 22.7284 27.9974C21.4533 27.4692 20.2951 26.6941 19.3205 25.7169C18.3431 24.7421 17.568 23.5838 17.0398 22.3086C16.5115 21.0333 16.2404 19.6662 16.2422 18.2858C16.2422 16.2551 16.8189 14.3594 17.8166 12.7515C17.7358 13.3015 17.7341 13.7122 18.0426 13.9271C18.0882 13.9787 18.1346 14.0276 18.181 14.0783C17.5376 15.3875 17.2038 16.8271 17.2056 18.2858C17.2056 20.9215 18.2746 23.308 20.0011 25.0354C20.8865 25.923 21.9386 26.6269 23.0969 27.1067C24.2552 27.5864 25.4969 27.8325 26.7507 27.8309C29.3872 27.8309 31.7737 26.7627 33.5011 25.0354C34.3885 24.1498 35.0923 23.0977 35.5721 21.9395C36.0518 20.7812 36.298 19.5395 36.2966 18.2858V18.2558C36.5859 18.2283 36.8747 18.1957 37.1629 18.1578L37.2591 18.2326Z" fill="#130506"/>
</g>
<defs>
<clipPath id="clip0_32_1507">
<rect width="55" height="55" fill="white"/>
</clipPath>
</defs>
</svg>
