<svg width="16" height="16" viewBox="0 0 16 16" fill="none" xmlns="http://www.w3.org/2000/svg">
<g id="Social">
<path id="Vector" d="M0.336337 7.90379C0.335965 9.2481 0.687221 10.5607 1.35513 11.7177L0.272461 15.6707L4.31786 14.61C5.43676 15.2191 6.69041 15.5383 7.96437 15.5383H7.96772C12.1733 15.5383 15.5967 12.1161 15.5985 7.9098C15.5993 5.87154 14.8063 3.95489 13.3654 2.51291C11.9248 1.07105 10.0088 0.276565 7.96741 0.275635C3.76133 0.275635 0.338135 3.69765 0.336399 7.90379" fill="#161616"/>
<path id="Vector_2" d="M0.0663566 7.90177C0.0659225 9.29445 0.429767 10.654 1.12149 11.8524L0 15.9471L4.19045 14.8484C5.34505 15.4779 6.64502 15.8098 7.96781 15.8103H7.97122C12.3277 15.8103 15.8741 12.265 15.876 7.90809C15.8767 5.79659 15.0551 3.81104 13.5628 2.3174C12.0703 0.823938 10.0858 0.000868217 7.97122 0C3.61401 0 0.068093 3.54481 0.0663566 7.90177ZM2.56186 11.646L2.4054 11.3976C1.74766 10.3518 1.4005 9.14326 1.40099 7.90226C1.40242 4.28087 4.34964 1.33457 7.97371 1.33457C9.72874 1.33532 11.3781 2.01947 12.6187 3.26078C13.8592 4.5022 14.5418 6.15243 14.5413 7.9076C14.5397 11.529 11.5924 14.4757 7.97122 14.4757H7.96862C6.78952 14.475 5.63312 14.1584 4.62462 13.56L4.38462 13.4177L1.89792 14.0696L2.56186 11.646V11.646Z" fill="white"/>
<path id="Vector_3" d="M5.99406 4.59831C5.84609 4.26944 5.69037 4.2628 5.54965 4.25704C5.43443 4.25208 5.30271 4.25245 5.17111 4.25245C5.03939 4.25245 4.82537 4.302 4.64447 4.49952C4.46339 4.69722 3.95312 5.17499 3.95312 6.14671C3.95312 7.11849 4.66091 8.05759 4.75957 8.1895C4.85837 8.32116 6.12596 10.3791 8.13353 11.1708C9.80199 11.8287 10.1415 11.6978 10.5036 11.6648C10.8658 11.632 11.6723 11.1872 11.8368 10.726C12.0014 10.2649 12.0014 9.86956 11.9521 9.78696C11.9027 9.70466 11.771 9.65524 11.5735 9.55651C11.3759 9.45772 10.4048 8.97989 10.2238 8.91397C10.0427 8.84811 9.91108 8.81524 9.77936 9.01301C9.64764 9.21046 9.2694 9.65524 9.15412 9.78696C9.03895 9.91899 8.92367 9.93542 8.72621 9.83663C8.52857 9.73753 7.89247 9.52922 7.13781 8.85642C6.55064 8.33288 6.15424 7.68637 6.03902 7.4886C5.92379 7.29115 6.02668 7.18411 6.12571 7.08569C6.21446 6.99719 6.3233 6.85505 6.42215 6.73977C6.52063 6.62442 6.5535 6.54212 6.61936 6.4104C6.68528 6.27856 6.65229 6.16321 6.60299 6.06442C6.5535 5.96563 6.16968 4.98882 5.99406 4.59831Z" fill="white"/>
</g>
</svg>
